# xmcd
#
# Track frame offsets:
#	150
#	15930
#	29614
#	52614
#	66307
#	106517
#	130980
#	142450
#	159685
#	176163
#	202809
#	221712
#	240187
#	258526
#	271829
#	285214
#	300258
#
# Disc length: 4802 seconds
#
# Revision: 4
# Processed by: cddbd v1.5.2PL0 Copyright (c) Steve Scherf et al.
# Submitted via: EZCDAudioConverter 6.0.0.1
#
DISCID=e512c011
DTITLE=Various Artist - Akella Presents - Rockin' Blues - vol.18  CD1  New!
DYEAR=2013
DGENRE=Blues
TTITLE0=PAT RAMSEY - Allergic to Work
TTITLE1=SCOTT KEETON - 100 Mile Blues
TTITLE2=DAVID DENNY - Without You
TTITLE3=SY KLOPP'S BLUES BAND - Steppin' Stone
TTITLE4=LITTLE JOHN CHRISLEY - Disconnected
TTITLE5=BACKTRACK BLUES BAND - Boogie Snack
TTITLE6=The PIRATES - Voodoo
TTITLE7=SWAMP THING - How Long
TTITLE8=Steepwater Band - Dance Me A Number
TTITLE9=SONNY KENN BAND - Fade to Black
TTITLE10=Dr. FEELGOOD - Sweet Louise
TTITLE11=ZED MITCHELL - King Of The Blues
TTITLE12=WORKING BLUES BAND - Who's Been Talking
TTITLE13=DOUG Little Brother JONES - The Last Time
TTITLE14=VIRGIL CAINE - What's It All About
TTITLE15=BUDDY FLETT - Threed House On the Left
TTITLE16=BLINDSIDE BLUES BAND - I'm Trying
EXTD=
EXTT0=
EXTT1=
EXTT2=
EXTT3=
EXTT4=
EXTT5=
EXTT6=
EXTT7=
EXTT8=
EXTT9=
EXTT10=
EXTT11=
EXTT12=
EXTT13=
EXTT14=
EXTT15=
EXTT16=
PLAYORDER=
